<svg width="156" height="260" viewBox="0 0 156 260" fill="none" xmlns="http://www.w3.org/2000/svg">
<g clip-path="url(#clip0_1604_4264)">
<path d="M13.3684 255.553V259.723C12.6801 259.776 11.5065 259.812 9.84762 259.812C8.35636 259.812 7.17394 259.671 6.30036 259.38C5.42678 259.097 4.7738 258.577 4.34142 257.837C3.90905 257.096 3.69727 256.029 3.69727 254.662V240.617H0V237.011H3.69727V230.653H8.72697V237.011H13.5802V240.617H8.72697V253.331C8.72697 254.301 8.91227 254.927 9.28288 255.2C9.65349 255.474 10.3329 255.606 11.3036 255.606C12.2742 255.606 12.9625 255.588 13.3684 255.562V255.553Z" fill="#015374"/>
<path d="M36.4962 253.066C35.8962 255.042 34.7314 256.734 33.0107 258.136C31.29 259.538 28.8722 260.244 25.7485 260.244C23.569 260.244 21.6542 259.75 19.9865 258.762C18.3275 257.775 17.0392 256.391 16.1392 254.618C15.2391 252.846 14.7803 250.783 14.7803 248.429C14.7803 246.074 15.2215 243.923 16.1127 242.133C17.0039 240.343 18.2658 238.95 19.9159 237.963C21.566 236.975 23.5072 236.481 25.7397 236.481C27.9722 236.481 29.7899 236.94 31.44 237.857C33.0901 238.774 34.3784 240.114 35.305 241.878C36.2315 243.641 36.6992 245.739 36.6992 248.173C36.6992 248.464 36.6727 248.914 36.6109 249.548H19.907C19.96 251.585 20.5247 253.234 21.5836 254.513C22.6425 255.791 24.0367 256.426 25.7574 256.426C27.4781 256.426 28.6516 256.029 29.5429 255.244C30.4341 254.46 31.0518 253.551 31.3871 252.52L36.505 253.075L36.4962 253.066ZM21.7336 241.922C20.7453 242.997 20.1629 244.338 19.9953 245.942H31.5636C31.3871 244.338 30.8135 242.997 29.8252 241.922C28.837 240.846 27.4781 240.308 25.7662 240.308C24.0543 240.308 22.7395 240.846 21.7513 241.922H21.7336Z" fill="#015374"/>
<path d="M48.8763 248.173L56.615 259.724H50.7646L45.8232 251.779L40.7052 259.724H35.1196L42.8142 248.253L35.4638 237.002H41.2259L45.9114 244.646L50.597 237.002H56.1826L48.8763 248.173Z" fill="#015374"/>
<path d="M70.2834 255.553V259.723C69.5952 259.776 68.4216 259.812 66.7627 259.812C65.2714 259.812 64.089 259.671 63.2154 259.38C62.3418 259.097 61.6888 258.577 61.2565 257.837C60.8241 257.096 60.6123 256.029 60.6123 254.662V240.617H56.915V237.011H60.6123V230.653H65.642V237.011H70.4952V240.617H65.642V253.331C65.642 254.301 65.8273 254.927 66.1979 255.2C66.5685 255.474 67.248 255.606 68.2186 255.606C69.1893 255.606 69.8775 255.588 70.2834 255.562V255.553Z" fill="#015374"/>
<path d="M88.2492 251.603L93.323 252.291C92.7494 254.407 91.6111 256.267 89.9081 257.854C88.2051 259.441 85.8049 260.235 82.7077 260.235C80.5017 260.235 78.5692 259.75 76.9015 258.771C75.2426 257.801 73.9543 256.417 73.0542 254.627C72.1542 252.837 71.6953 250.756 71.6953 248.376C71.6953 245.995 72.1453 243.906 73.0542 242.107C73.9543 240.299 75.2426 238.915 76.9015 237.936C78.5604 236.966 80.5017 236.473 82.7077 236.473C85.6902 236.473 87.9845 237.187 89.6081 238.624C91.2229 240.052 92.3259 241.587 92.8995 243.218L88.1257 244.593C87.7815 243.535 87.1903 242.574 86.3432 241.719C85.4961 240.864 84.2872 240.432 82.7077 240.432C80.8988 240.432 79.4781 241.137 78.428 242.539C77.378 243.941 76.8574 245.889 76.8574 248.376C76.8574 250.862 77.378 252.811 78.428 254.195C79.4781 255.579 80.8988 256.276 82.7077 256.276C85.5402 256.276 87.3933 254.715 88.2492 251.594V251.603Z" fill="#78C144"/>
<path d="M110.565 259.723C110.388 259.521 110.238 259.177 110.115 258.674C109.983 258.172 109.903 257.59 109.877 256.937C109.215 258.031 108.2 258.851 106.824 259.406C105.447 259.962 104 260.244 102.482 260.244C101.079 260.244 99.7908 259.97 98.6172 259.424C97.4436 258.877 96.5083 258.101 95.82 257.078C95.1317 256.064 94.7876 254.865 94.7876 253.49C94.7876 251.144 95.5818 249.407 97.1701 248.288C98.7584 247.168 101.159 246.454 104.37 246.136C106.488 245.907 107.935 245.598 108.712 245.21C109.488 244.822 109.868 244.258 109.868 243.518C109.868 242.512 109.506 241.745 108.774 241.199C108.041 240.652 106.921 240.387 105.403 240.387C104.229 240.387 103.17 240.687 102.244 241.287C101.309 241.886 100.664 242.795 100.285 243.994L95.6435 243.094C96.1289 241.031 97.2672 239.418 99.0584 238.245C100.85 237.072 103.02 236.481 105.571 236.481C108.747 236.481 111.103 237.125 112.621 238.412C114.139 239.7 114.898 241.419 114.898 243.57V254.953C114.898 256.355 114.933 257.387 115.003 258.048C115.074 258.709 115.242 259.265 115.498 259.723H110.556H110.565ZM109.877 248.252C109.533 248.57 108.888 248.834 107.944 249.046C107 249.257 105.791 249.451 104.335 249.628C103.047 249.795 101.988 250.192 101.159 250.809C100.329 251.427 99.9144 252.273 99.9144 253.366C99.9144 254.371 100.241 255.139 100.885 255.685C101.529 256.232 102.429 256.505 103.568 256.505C104.573 256.505 105.553 256.302 106.515 255.906C107.477 255.509 108.28 254.883 108.924 254.036C109.568 253.19 109.894 252.123 109.894 250.836V248.261L109.877 248.252Z" fill="#78C144"/>
<path d="M118.127 237.002H122.945V240.44H123.113C123.713 239.268 124.604 238.315 125.778 237.584C126.951 236.852 128.31 236.49 129.863 236.49C130.525 236.49 131.143 236.561 131.708 236.702V241.472C131.505 241.445 131.178 241.41 130.719 241.366C130.26 241.322 129.828 241.304 129.431 241.304C125.248 241.304 123.157 243.491 123.157 247.873V259.732H118.127V237.01V237.002Z" fill="#78C144"/>
<path d="M154.756 253.066C154.156 255.042 152.991 256.734 151.27 258.136C149.55 259.538 147.132 260.244 144.008 260.244C141.829 260.244 139.914 259.75 138.246 258.762C136.587 257.775 135.299 256.391 134.399 254.618C133.499 252.846 133.04 250.783 133.04 248.429C133.04 246.074 133.481 243.923 134.372 242.133C135.264 240.343 136.526 238.95 138.176 237.963C139.826 236.975 141.767 236.481 143.999 236.481C146.232 236.481 148.05 236.94 149.7 237.857C151.35 238.774 152.638 240.114 153.565 241.878C154.491 243.641 154.959 245.739 154.959 248.173C154.959 248.464 154.932 248.914 154.871 249.548H138.149C138.202 251.585 138.767 253.234 139.826 254.513C140.885 255.791 142.279 256.426 143.999 256.426C145.72 256.426 146.894 256.029 147.785 255.244C148.676 254.46 149.294 253.551 149.629 252.52L154.747 253.075L154.756 253.066ZM139.993 241.922C139.005 242.997 138.423 244.338 138.255 245.942H149.823C149.647 244.338 149.073 242.997 148.085 241.922C147.097 240.846 145.738 240.308 144.026 240.308C142.314 240.308 140.999 240.846 140.011 241.922H139.993Z" fill="#78C144"/>
<path d="M131.76 129.48C122.389 127.955 116.927 122.638 116.927 122.638H116.918C118.242 126.526 118.966 130.679 118.966 135C118.966 156.134 101.821 173.275 80.6605 173.275C59.5005 173.275 42.3554 156.143 42.3554 135C42.3554 113.856 59.5093 96.7245 80.6605 96.7245C82.8048 96.7245 84.9137 96.9097 86.9609 97.2447C86.9609 97.2447 87.9756 97.0507 89.4934 96.7245C91.0111 96.3983 98.1233 94.2381 102.774 90.1381C109.365 84.3188 111.58 79.3988 111.624 79.3283C102.456 74.2231 91.9024 71.3135 80.6605 71.3135C45.4615 71.3135 16.9246 99.8281 16.9246 135C16.9246 146.832 20.163 157.915 25.7839 167.403C23.5073 182.436 13.4214 187.903 6.98871 189.878C5.62098 190.301 5.85923 191.835 7.0593 192.62C12.2478 196.006 18.2923 196.896 25.9868 196.896C34.8726 196.896 41.8613 191.509 45.4174 188.07C55.512 194.78 67.6274 198.686 80.6605 198.686C115.86 198.686 144.396 170.171 144.396 135C144.396 133.113 144.308 131.252 144.149 129.41C140.673 129.912 136.199 130.203 131.76 129.48Z" fill="#78C144"/>
<path d="M155.073 118.564C148.641 116.589 138.555 111.122 136.278 96.0893C141.908 86.5932 145.137 75.5189 145.137 63.6863C145.137 28.5147 116.601 0 81.4015 0C46.2024 0 17.6743 28.5147 17.6743 63.6863C17.6743 74.9105 20.5862 85.447 25.6777 94.5992C25.7042 94.5551 27.3455 91.2839 34.3782 84.9444C39.8932 79.9803 43.8729 77.5203 45.3641 76.6739C43.8993 72.618 43.0963 68.2447 43.0963 63.6774C43.0963 42.5427 60.2414 25.4022 81.4015 25.4022C102.561 25.4022 119.707 42.5339 119.707 63.6774C119.707 84.8209 102.561 101.953 81.4015 101.953C79.169 101.953 76.9894 101.75 74.8628 101.388C71.1479 101.953 65.0064 103.822 59.209 108.363C54.1176 112.348 51.2586 117.162 50.1909 119.217C59.412 124.401 70.0626 127.364 81.3926 127.364C94.4257 127.364 106.541 123.449 116.636 116.748C120.192 120.187 127.181 125.574 136.066 125.574C143.761 125.574 149.796 124.683 154.994 121.297C156.194 120.513 156.432 118.979 155.064 118.555L155.073 118.564Z" fill="#015374"/>
</g>
<defs>
<clipPath id="clip0_1604_4264">
<rect width="156" height="260" fill="white"/>
</clipPath>
</defs>
</svg>
